<?xml version="1.0" encoding="UTF-8"?>
<svg version="1.1" xmlns="http://www.w3.org/2000/svg" width="300" height="300">
<path d="M0 0 C1.47626862 0.03542404 1.47626862 0.03542404 2.98236084 0.07156372 C15.7299206 0.38128638 28.46075407 0.8263756 41.1875 1.625 C43.00399048 1.73678589 43.00399048 1.73678589 44.85717773 1.85083008 C51.87154975 2.33934613 58.67623109 3.26422197 65.5625 4.6875 C67.83782349 11.07009597 67.88804369 17.10022731 67.92895508 23.83325195 C67.94381958 25.0405043 67.95868408 26.24775665 67.97399902 27.49159241 C68.01213421 30.78457941 68.0415375 34.07748915 68.06601167 37.37060189 C68.08745858 40.12206257 68.11465177 42.87345506 68.14172095 45.62486523 C68.20530943 52.11126312 68.25853014 58.59769012 68.30541992 65.08422852 C68.35401189 71.77885726 68.42091405 78.47313089 68.49658471 85.16750365 C68.56092265 90.91957108 68.61365256 96.67166563 68.6570732 102.42392892 C68.68313443 105.85796766 68.71372658 109.29181702 68.75562477 112.72570229 C68.80168161 116.54665587 68.82355949 120.36753438 68.84301758 124.1887207 C68.86001205 125.33002441 68.87700653 126.47132813 68.89451599 127.6472168 C68.89591583 128.68320511 68.89731567 129.71919342 68.89875793 130.78657532 C68.90630002 131.69005864 68.91384211 132.59354197 68.92161274 133.52440357 C68.74385193 134.5951363 68.74385193 134.5951363 68.5625 135.6875 C63.71380633 138.91996245 58.38704173 138.05633833 52.6875 138.0625 C51.50285156 138.08699219 50.31820312 138.11148438 49.09765625 138.13671875 C47.95425781 138.14058594 46.81085938 138.14445313 45.6328125 138.1484375 C44.58883301 138.15665527 43.54485352 138.16487305 42.46923828 138.17333984 C38.84498234 137.56757222 37.18612899 136.20667675 34.5625 133.6875 C33.22919971 131.02089943 33.40090541 128.93861257 33.35717773 125.95263672 C33.3272599 124.15099564 33.3272599 124.15099564 33.29673767 122.31295776 C33.28002518 121.01085358 33.26331268 119.70874939 33.24609375 118.3671875 C33.22552375 117.02482462 33.20452727 115.68246821 33.18312073 114.34011841 C33.12790469 110.80561562 33.07849342 107.27105443 33.03027344 103.7364502 C32.98005496 100.13023678 32.92437071 96.52410828 32.86914062 92.91796875 C32.76156483 85.84121951 32.66011858 78.76439416 32.5625 71.6875 C32.3358667 72.2222998 32.1092334 72.75709961 31.87573242 73.30810547 C30.84309564 75.7303139 29.79674997 78.14635908 28.75 80.5625 C28.39357422 81.40425781 28.03714844 82.24601562 27.66992188 83.11328125 C27.31865234 83.91894531 26.96738281 84.72460938 26.60546875 85.5546875 C26.12630005 86.67012939 26.12630005 86.67012939 25.63745117 87.80810547 C24.5625 89.6875 24.5625 89.6875 21.5625 91.6875 C13.65247522 92.56639164 7.9006477 91.87731449 1.4375 87.125 C-1.43987084 83.3844179 -2.8534067 79.10273878 -4.4375 74.6875 C-5.96309507 76.21309507 -5.61658714 77.64036471 -5.68359375 79.765625 C-5.71646484 80.59707031 -5.74933594 81.42851562 -5.78320312 82.28515625 C-5.84385635 84.0376473 -5.90120914 85.79025604 -5.95507812 87.54296875 C-6.3625826 97.52298389 -6.3625826 97.52298389 -10.15625 101.48046875 C-17.29496573 105.2576317 -28.30860663 102.64138428 -36.01171875 101.515625 C-39.14046988 100.44751672 -39.9392005 99.63653393 -41.4375 96.6875 C-42.73989228 89.22681318 -42.6013902 81.73249357 -42.60546875 74.1796875 C-42.60869046 72.76734383 -42.61205519 71.35500048 -42.61555481 69.94265747 C-42.62151887 66.98910755 -42.62339766 64.03558676 -42.62280273 61.08203125 C-42.62270157 57.33717022 -42.63631878 53.59250073 -42.65357494 49.84768486 C-42.66481562 46.93048279 -42.66671824 44.01332516 -42.66619301 41.09610367 C-42.6673564 39.717707 -42.67168324 38.33930854 -42.67952538 36.96093369 C-42.73783986 25.64805385 -42.57013745 13.3837381 -38.4375 2.6875 C-29.14078572 -3.51030952 -10.87027495 -0.28033759 0 0 Z " fill="#071039" transform="translate(97.4375,143.3125)"/>
<path d="M0 0 C13.68813253 10.13326632 23.06199289 25.13206558 26 42 C27.26422765 56.02368277 26.46895043 68.99148496 21 82 C20.67773438 82.80308594 20.35546875 83.60617188 20.0234375 84.43359375 C17.67477633 89.67212932 14.27160966 95.16354393 10 99 C7.27734375 99.25 7.27734375 99.25 5 99 C4.505 98.0925 4.01 97.185 3.5 96.25 C0.81317267 91.50911265 -2.30517514 87.06163397 -5.390625 82.57421875 C-7 80 -7 80 -7 78 C-9.93200474 80.85276137 -12.64315404 83.65079784 -15 87 C-19.49038276 86.61963817 -21.67462417 83.44231871 -24.4375 80.25 C-25.37257653 79.19171644 -26.30876654 78.13441564 -27.24609375 77.078125 C-27.69968262 76.56443359 -28.15327148 76.05074219 -28.62060547 75.52148438 C-30.66774125 73.2634755 -32.82349131 71.13305752 -35 69 C-39.595149 76.23094513 -43.81434818 83.42099147 -47.5546875 91.13671875 C-49.41752813 94.82715708 -51.52582834 98.33198119 -53.703125 101.84375 C-54.91278362 103.85498963 -55.98172863 105.8866066 -57 108 C-60.33135891 107.40300869 -62.21275667 106.27987719 -64.75 104.0625 C-65.36359375 103.53785156 -65.9771875 103.01320313 -66.609375 102.47265625 C-68 101 -68 101 -68 99 C-68.66 99 -69.32 99 -70 99 C-71.54606396 96.94668127 -72.94240767 94.91746189 -74.3125 92.75 C-74.71476807 92.11537842 -75.11703613 91.48075684 -75.53149414 90.8269043 C-85.7356102 74.34269907 -88.66140343 56.23148941 -84.4375 37.3125 C-81.87914629 26.84553259 -76.80245964 17.35730756 -70 9 C-69.34 9 -68.68 9 -68 9 C-67.67 8.01 -67.34 7.02 -67 6 C-47.18247378 -10.96157341 -22.48104552 -14.11533676 0 0 Z " fill="#071039" transform="translate(256,143)"/>
<path d="M0 0 C8.359529 7.98799437 11.8984336 16.86853737 12.33813477 28.40112305 C12.45812229 37.47011374 11.97640494 44.93479391 6.8125 52.6875 C6.37808594 53.39648438 5.94367188 54.10546875 5.49609375 54.8359375 C-1.59196965 65.37715999 -12.64247392 71.20942928 -24.1875 75.6875 C-25.1775 75.6875 -26.1675 75.6875 -27.1875 75.6875 C-26.98253906 76.77289063 -26.77757812 77.85828125 -26.56640625 78.9765625 C-26.29423817 80.42186885 -26.02210458 81.8671817 -25.75 83.3125 C-25.61529297 84.02535156 -25.48058594 84.73820312 -25.34179688 85.47265625 C-24.57731729 89.53745013 -23.85080363 93.60464075 -23.1875 97.6875 C-41.04368889 104.04309265 -41.04368889 104.04309265 -50.1875 103.6875 C-52.60437005 94.70704885 -54.95860339 85.71680565 -57.1875 76.6875 C-57.76927734 74.33294832 -58.35276201 71.97881817 -58.9375 69.625 C-59.09573242 68.98739746 -59.25396484 68.34979492 -59.41699219 67.69287109 C-60.57894514 63.04178923 -61.78254057 58.40249208 -63 53.765625 C-63.3187207 52.54883057 -63.63744141 51.33203613 -63.96582031 50.07836914 C-64.607846 47.63141244 -65.25297224 45.18526692 -65.90136719 42.73999023 C-66.19688477 41.61278564 -66.49240234 40.48558105 -66.796875 39.32421875 C-67.06467773 38.31061279 -67.33248047 37.29700684 -67.60839844 36.25268555 C-68.1875 33.6875 -68.1875 33.6875 -68.1875 30.6875 C-69.6725 31.1825 -69.6725 31.1825 -71.1875 31.6875 C-72.74868428 31.75490865 -74.3125252 31.77264456 -75.875 31.75 C-77.08736328 31.73646484 -77.08736328 31.73646484 -78.32421875 31.72265625 C-78.93910156 31.71105469 -79.55398437 31.69945312 -80.1875 31.6875 C-87.33643617 14.53856383 -87.33643617 14.53856383 -86.1875 5.6875 C-60.68015704 -7.95047844 -25.75319912 -18.68369348 0 0 Z " fill="#071039" transform="translate(99.1875,31.3125)"/>
<path d="M0 0 C1.08990234 -0.01224609 2.17980469 -0.02449219 3.30273438 -0.03710938 C18.85672606 -0.06483485 32.3178243 2.48731127 44.0625 13.1875 C49.57973141 18.85275469 51.4111909 23.1728832 51.375 31.0625 C51.39111328 31.75730469 51.40722656 32.45210937 51.42382812 33.16796875 C51.4306788 40.44338039 48.29158267 45.4577751 44.0625 51.1875 C43.4025 51.1875 42.7425 51.1875 42.0625 51.1875 C41.7325 52.1775 41.4025 53.1675 41.0625 54.1875 C39.21484375 55.57421875 39.21484375 55.57421875 37 56.875 C36.26652344 57.31199219 35.53304687 57.74898437 34.77734375 58.19921875 C34.21144531 58.52535156 33.64554688 58.85148437 33.0625 59.1875 C36.51068538 65.89326755 40.62838592 72.02803505 44.9765625 78.171875 C45.66492188 79.16703125 46.35328125 80.1621875 47.0625 81.1875 C47.66835937 82.03828125 48.27421875 82.8890625 48.8984375 83.765625 C50.31402085 86.7107984 50.02541878 88.12366751 49.0625 91.1875 C46.37612232 91.55313746 43.68907141 91.90524726 41 92.25 C40.24783203 92.35376953 39.49566406 92.45753906 38.72070312 92.56445312 C33.98416252 93.15908376 29.69004262 93.61514613 25.0625 92.1875 C22.71744864 89.99098713 21.01219967 87.4868679 19.25 84.8125 C18.77369141 84.12671875 18.29738281 83.4409375 17.80664062 82.734375 C16.53702951 80.8987066 15.2939197 79.04891734 14.0625 77.1875 C13.4025 76.1975 12.7425 75.2075 12.0625 74.1875 C12.10850342 75.02522949 12.15450684 75.86295898 12.2019043 76.72607422 C12.36507582 79.83042869 12.51448713 82.93505077 12.65454102 86.04052734 C12.71802415 87.38520072 12.78700857 88.72962599 12.86157227 90.07373047 C12.96770939 92.0041439 13.05252538 93.93569259 13.13671875 95.8671875 C13.19432373 97.02976074 13.25192871 98.19233398 13.3112793 99.39013672 C13.22918213 100.3132666 13.14708496 101.23639648 13.0625 102.1875 C9.88579004 104.30530664 9.10002682 104.43642146 5.46484375 104.41796875 C4.58119141 104.41603516 3.69753906 104.41410156 2.78710938 104.41210938 C1.86736328 104.39986328 0.94761719 104.38761719 0 104.375 C-0.92361328 104.37435547 -1.84722656 104.37371094 -2.79882812 104.37304688 C-9.65657383 104.32796308 -9.65657383 104.32796308 -11.9375 103.1875 C-12.40957114 100.6287967 -12.74009165 98.16566301 -12.9921875 95.58203125 C-13.11616409 94.38608086 -13.11616409 94.38608086 -13.24264526 93.16596985 C-14.16073796 83.76090199 -14.56930903 74.33012511 -14.94287109 64.89038086 C-15.06306196 61.86083525 -15.19291215 58.83181667 -15.32421875 55.80273438 C-15.74133691 45.92599382 -16.08614408 36.074691 -15.9375 26.1875 C-18.2475 25.8575 -20.5575 25.5275 -22.9375 25.1875 C-25.36458499 20.46763512 -25.20296756 16.10798053 -25.125 10.9375 C-25.12435547 10.10992187 -25.12371094 9.28234375 -25.12304688 8.4296875 C-25.07803468 2.32803468 -25.07803468 2.32803468 -23.9375 1.1875 C-16.02696758 -0.00855214 -7.98141694 0.00470325 0 0 Z " fill="#071039" transform="translate(176.9375,30.8125)"/>
<path d="M0 0 C1.32341865 2.63818751 2.29389676 4.91862503 3.1875 7.6875 C3.42146484 8.35716797 3.65542969 9.02683594 3.89648438 9.71679688 C4.6202088 11.80423344 5.30986197 13.90125039 6 16 C6.24314941 16.70157227 6.48629883 17.40314453 6.73681641 18.12597656 C8.8052009 24.13356507 10.43265646 30.21991132 12 36.375 C12.4993729 38.32047358 12.99937137 40.26578668 13.5 42.2109375 C13.86810791 43.64614746 13.86810791 43.64614746 14.24365234 45.11035156 C15.00041808 48.0015973 15.79770677 50.87934695 16.6015625 53.7578125 C17.76191143 57.9964989 18.70010175 62.15717651 19.375 66.5 C19.56835938 67.6653125 19.76171875 68.830625 19.9609375 70.03125 C20 73 20 73 18.7890625 74.84375 C15.66279133 76.8642222 12.55062975 77.12538356 8.890625 77.09765625 C8.13652344 77.09443359 7.38242188 77.09121094 6.60546875 77.08789062 C5.82816406 77.07951172 5.05085938 77.07113281 4.25 77.0625 C3.45722656 77.05798828 2.66445312 77.05347656 1.84765625 77.04882812 C-0.10159508 77.03708565 -2.05080738 77.01915146 -4 77 C-5.47347791 74.05304418 -5.64648314 70.92010509 -6.0625 67.6875 C-6.15337891 67.02298828 -6.24425781 66.35847656 -6.33789062 65.67382812 C-6.81459619 62.05014896 -7 58.67393245 -7 55 C-12.445 55.495 -12.445 55.495 -18 56 C-18.06058594 57.14339844 -18.12117188 58.28679687 -18.18359375 59.46484375 C-18.26798428 60.95574305 -18.35263302 62.44662775 -18.4375 63.9375 C-18.47681641 64.69224609 -18.51613281 65.44699219 -18.55664062 66.22460938 C-18.88671875 71.88671875 -18.88671875 71.88671875 -20 73 C-21.56172745 73.08685603 -23.12729344 73.10702219 -24.69140625 73.09765625 C-25.63564453 73.09443359 -26.57988281 73.09121094 -27.55273438 73.08789062 C-28.54595703 73.07951172 -29.53917969 73.07113281 -30.5625 73.0625 C-31.55958984 73.05798828 -32.55667969 73.05347656 -33.58398438 73.04882812 C-36.05604849 73.03700007 -38.52799518 73.02051849 -41 73 C-44.15988954 66.68022093 -41.63582396 57.16468331 -40.4375 50.5 C-40.26259033 49.52240723 -40.08768066 48.54481445 -39.9074707 47.53759766 C-31.82463265 4.39506635 -31.82463265 4.39506635 -21.43359375 -2.76953125 C-13.82251163 -6.6178312 -6.43378537 -5.30744628 0 0 Z " fill="#071039" transform="translate(142,62)"/>
<path d="M0 0 C0.928125 0.495 0.928125 0.495 1.875 1 C1.875 1.66 1.875 2.32 1.875 3 C2.535 3 3.195 3 3.875 3 C8.57434353 12.65865074 10.96356527 22.58679596 13.22802734 33.03173828 C13.6686329 35.05320333 14.11991332 37.07236441 14.58056641 39.08935547 C17.70676406 52.79163875 20.0167219 65.90788966 18.875 80 C16.26071348 82.61428652 9.86527008 82.10333963 6.3125 82.1875 C2.5126155 82.15496674 -0.58280069 81.45320997 -4.125 80 C-5.12362699 72.63512596 -5.22831031 65.42686315 -5.125 58 C-10.57 58.495 -10.57 58.495 -16.125 59 C-16.25777344 60.05960938 -16.39054687 61.11921875 -16.52734375 62.2109375 C-16.70553875 63.59898279 -16.8839346 64.98700231 -17.0625 66.375 C-17.14951172 67.07367188 -17.23652344 67.77234375 -17.32617188 68.4921875 C-18.01171875 73.7734375 -18.01171875 73.7734375 -19.125 76 C-22.4176882 75.91935365 -25.70849221 75.80649721 -29 75.6875 C-30.40572266 75.65366211 -30.40572266 75.65366211 -31.83984375 75.61914062 C-33.18369141 75.5659668 -33.18369141 75.5659668 -34.5546875 75.51171875 C-35.38210449 75.48553467 -36.20952148 75.45935059 -37.06201172 75.43237305 C-39.125 75 -39.125 75 -41.125 72 C-42.39482345 51.71538442 -32.59811746 18.19065001 -19.16796875 2.75 C-13.55900237 -2.0546213 -6.90231137 -2.20873964 0 0 Z " fill="#071039" transform="translate(268.125,53)"/>
</svg>
